PathFileType	4	(X/Y/Z)	c:/Users/goper/Files/vsCode/490R/osim_files/A03/A03_Fast_04.trc
DataRate	CameraRate	NumFrames	NumMarkers	Units                	OrigDataRate	OrigDataStartFrame	OrigNumFrames
250.00	250.00	6	36	mm	250.0	1680	2687
                Frame#	Time	LPSIS			LASIS			LTH1			LTH2			LTH3			LTH4			LLFE			LMFE			LSH1			LSH2			LSH3			LSH4			LLMAL			LMMAL			LCAL			LMTP5			LTOE			LMTP1			RPSIS			RASIS			RTH1			RTH2			RTH3			RTH4			RLFE			RMFE			RSH1			RSH2			RSH3			RSH4			RLMAL			RMMAL			RCAL			RMTP1			RTOE			RMTP5		
		X1	Y1	Z1	X2	Y2	Z2	X3	Y3	Z3	X4	Y4	Z4	X5	Y5	Z5	X6	Y6	Z6	X7	Y7	Z7	X8	Y8	Z8	X9	Y9	Z9	X10	Y10	Z10	X11	Y11	Z11	X12	Y12	Z12	X13	Y13	Z13	X14	Y14	Z14	X15	Y15	Z15	X16	Y16	Z16	X17	Y17	Z17	X18	Y18	Z18	X19	Y19	Z19	X20	Y20	Z20	X21	Y21	Z21	X22	Y22	Z22	X23	Y23	Z23	X24	Y24	Z24	X25	Y25	Z25	X26	Y26	Z26	X27	Y27	Z27	X28	Y28	Z28	X29	Y29	Z29	X30	Y30	Z30	X31	Y31	Z31	X32	Y32	Z32	X33	Y33	Z33	X34	Y34	Z34	X35	Y35	Z35	X36	Y36	Z36

1680	6.71600	-3297.21533	1064.92493	282.05884	-3522.81934	992.69763	437.09515	-3569.69434	649.26685	516.29572	-3584.74976	609.31537	521.84265	-3629.10449	661.74725	502.85181	-3633.92114	618.63202	508.65909	-3589.01270	553.75281	511.31757	-3626.33154	535.99994	359.57825	-3538.65186	473.90579	495.26730	-3504.31738	448.02219	483.32883	-3500.00732	522.44592	495.50732	-3469.04175	487.15466	489.85303	-3242.56226	259.68219	418.07260	-3267.86523	256.61273	323.20468	-3189.74878	298.46204	357.90155	-3302.41333	111.27727	435.25565	-3356.67651	116.55215	374.76053	-3323.50928	121.36700	322.83759	-3308.20605	1072.42505	199.34862	-3566.37939	989.50867	140.53770	-3526.75293	618.53833	100.97668	-3535.51733	574.58398	110.62299	-3587.45728	627.17712	115.51035	-3587.93140	583.09332	123.36861	-3558.98022	544.92682	129.84377	-3579.68945	557.78064	253.03458	-3507.00903	478.12119	121.98823	-3502.07593	436.51660	111.31032	-3568.26904	467.26071	125.74187	-3556.76904	424.04581	117.34810	-3478.72339	129.70618	166.19267	0.00000	0.00000	0.00000	-3417.22192	90.30122	221.47638	-3656.62549	75.84424	214.43738	-3628.57300	53.34494	259.95789	0.00000	0.00000	0.00000
1681	6.72000	-3301.62988	1066.16052	282.25687	-3528.05786	994.50067	436.57321	-3579.56323	652.73077	516.80530	-3594.63477	612.48950	521.74359	-3637.69312	664.55469	501.31943	-3642.88184	621.44922	506.98553	-3598.31860	555.68671	510.47726	-3634.75098	539.69507	358.23553	-3549.45947	475.06979	494.12781	-3513.75000	449.39780	482.80768	-3508.19482	523.15869	493.93759	-3476.83008	486.98386	487.35333	-3256.90796	255.23563	418.80542	-3281.62183	253.31450	323.59381	-3202.66162	293.41898	359.35416	-3320.14038	108.10162	434.32132	-3371.56714	113.07452	373.02582	-3341.27051	119.08401	322.37720	-3312.71411	1073.52478	199.49290	-3570.22803	989.98303	140.07201	-3527.92773	618.74707	101.21669	-3536.49463	574.81787	110.83296	-3588.77197	627.07819	115.59567	-3588.96631	582.97937	123.48470	-3559.73120	544.97449	130.06871	-3580.77954	557.75549	253.21370	-3507.65479	478.39346	122.28150	0.00000	0.00000	0.00000	-3568.87256	467.39044	125.94783	-3557.25928	424.19379	117.52570	-3478.77051	129.89455	166.30806	0.00000	0.00000	0.00000	-3417.20923	90.35918	221.50740	-3656.61206	75.93143	214.41939	-3628.54468	53.35897	259.95184	0.00000	0.00000	0.00000
1682	6.72400	-3306.36377	1067.29504	282.52469	-3533.37329	996.34753	436.08194	-3588.12769	654.91235	515.96973	-3603.79297	614.93146	520.76471	-3646.10278	667.33472	499.71790	-3651.68066	624.26453	505.26752	-3607.01953	557.47174	509.37518	-3642.88184	543.22552	356.93921	-3560.26318	476.31982	493.02203	-3523.09985	450.69342	482.28607	-3519.91943	522.97583	494.99387	-3487.44116	486.69977	487.11816	-3271.98877	250.73781	419.34833	-3295.52466	249.82129	324.00610	-3215.98462	288.25931	360.64688	-3338.11768	104.88511	433.55792	-3388.65259	111.12683	371.68329	-3357.85913	116.85722	321.42688	-3317.11255	1074.69153	199.24480	-3574.05591	990.43213	139.65669	-3529.13403	618.97223	101.42322	-3537.46289	575.01434	111.04873	-3590.06348	626.91608	115.69640	-3589.98340	582.84796	123.60220	-3560.62964	545.05530	130.21674	-3581.93286	557.72614	253.37657	-3508.17163	478.61731	122.59073	-3504.87891	437.79172	113.32253	-3569.40771	467.47153	126.08475	-3557.67651	424.32025	117.68544	-3478.79028	130.02750	166.36702	0.00000	0.00000	0.00000	-3417.21191	90.40115	221.49515	-3656.63477	75.99603	214.34579	-3628.51172	53.35299	259.95239	0.00000	0.00000	0.00000
1683	6.72800	-3310.93750	1068.38574	282.73755	-3538.64771	998.13464	435.54126	-3596.51514	657.02606	515.05872	-3612.74097	617.31244	519.73499	-3654.40283	670.09143	498.12891	-3660.40771	627.07373	503.52350	-3616.47339	559.63416	508.87543	-3650.83228	546.59967	355.58948	-3571.02148	477.51239	491.85742	-3532.36255	451.95187	481.72141	-3529.81201	523.22321	494.69003	-3499.09863	486.17322	487.74323	-3286.89844	246.18454	419.94452	-3309.65283	246.15573	324.41928	-3229.98413	282.49448	362.01114	-3356.32544	101.69405	432.84946	-3405.93652	109.18048	370.45926	-3374.73096	114.56216	320.55231	-3321.64697	1075.81055	199.37129	-3577.92627	990.89093	139.17557	-3530.45361	619.26068	101.64330	-3537.52856	575.23138	110.60689	-3591.43506	626.77673	115.74365	-3591.05493	582.69067	123.68430	-3561.44873	545.07526	130.44344	-3583.14941	557.65509	253.52451	-3508.80103	478.87997	122.94047	-3505.38818	438.08698	113.59174	-3570.02246	467.54117	126.27357	-3558.13159	424.45160	117.82701	-3478.88110	130.24756	166.49971	0.00000	0.00000	0.00000	-3417.24561	90.49663	221.61032	-3656.59790	76.00568	214.34245	-3628.58105	53.41434	259.90012	0.00000	0.00000	0.00000
1684	6.73200	-3315.17041	1069.49963	282.86221	-3543.88354	999.80621	434.97321	-3604.89844	659.21655	514.23285	-3621.66235	619.75415	518.72858	-3662.55200	672.82440	496.50977	-3668.91846	629.85059	501.79361	-3623.99634	561.38892	506.50272	-3658.85010	550.05469	354.29758	-3581.96753	478.33691	490.29837	-3544.78564	449.82770	479.32584	-3539.56299	523.36597	494.36111	-3508.42505	485.77835	486.74622	-3301.89404	241.23207	420.64340	-3323.94312	242.31006	324.88153	-3243.42554	276.74008	362.89850	-3373.89014	98.74324	432.20425	-3422.18945	107.41767	370.00708	-3391.88232	112.23088	319.78641	-3326.10669	1076.78735	199.57117	-3581.76636	991.28583	138.75928	-3531.90991	619.48444	101.79503	-3538.60181	575.36188	110.78391	-3592.79761	626.60559	115.82883	-3592.18726	582.51831	123.75389	-3562.42212	545.09680	130.60809	-3584.43701	557.59052	253.62865	-3506.78467	479.02463	121.69974	-3505.88330	438.35477	113.88644	-3570.58643	467.58316	126.42135	-3558.63745	424.59430	117.94141	-3478.91235	130.42073	166.58861	0.00000	0.00000	0.00000	-3417.29199	90.55994	221.65305	-3656.58667	76.01884	214.31493	-3628.54492	53.40816	259.92285	0.00000	0.00000	0.00000
1685	6.73600	-3319.88403	1070.43884	283.15829	-3549.17188	1001.41077	434.48557	-3613.12695	661.35260	513.36292	-3630.47705	622.14893	517.70892	-3670.53613	675.50287	494.86658	-3677.33081	632.59674	500.00952	-3635.68652	564.76367	507.37921	-3666.49072	553.27673	353.02863	-3593.16260	478.91080	488.61957	-3555.92261	450.07983	478.70605	-3549.20410	523.45068	494.02603	-3520.66602	484.81583	488.02228	-3317.51831	236.42691	421.21741	-3338.27295	238.18855	325.33405	-3257.44043	270.78430	364.14914	-3392.43018	95.48759	431.57932	-3439.85742	105.69041	368.95081	-3409.21777	109.79595	319.16345	-3330.60327	1077.75757	199.81100	-3585.52539	991.61163	138.36777	-3533.17139	619.59045	102.02921	-3539.75269	575.51996	110.98748	-3594.22437	626.41943	115.86210	-3593.35449	582.33282	123.86209	-3563.39502	545.11713	130.79572	-3585.78491	557.47589	253.75958	-3509.23071	479.42111	122.89302	-3506.35425	438.58231	114.21588	-3571.22095	467.62564	126.54552	-3559.11816	424.66370	118.06740	-3479.02197	130.58542	166.69688	0.00000	0.00000	0.00000	-3417.46680	90.71102	221.76682	-3656.59058	76.01363	214.27472	-3628.54834	53.39928	259.92297	0.00000	0.00000	0.00000
